# xmcd CD database file
#
# Track frame offsets:
#	150
#	10648
#	20396
#	35619
#	59092
#	71265
#	88501
#	100649
#	115859
#	125845
#	161592
#
# Disc length: 2158 seconds
#
# Revision: 0
# Processed by: cddbd v1.5.2PL0 Copyright (c) Steve Scherf et al.
# Submitted via: CDex 1.51
#
DISCID=87086c0b
DTITLE=JJ Cale - Shades
DYEAR=2004
DGENRE=Blues
TTITLE0=Carry On
TTITLE1=Deep Dark Dungeon
TTITLE2=Wish I had Not Said That
TTITLE3=Pack My Jack
TTITLE4=If You Leave Her
TTITLE5=Mama Don't
TTITLE6=Runaround
TTITLE7=What Do You Expect
TTITLE8=Love Has Been Gone
TTITLE9=Cloudy Day
TTITLE10=Data Track 1
EXTD=YEAR: 2004
EXTT0=
EXTT1=
EXTT2=
EXTT3=
EXTT4=
EXTT5=
EXTT6=
EXTT7=
EXTT8=
EXTT9=
EXTT10=
PLAYORDER=
